<svg xmlns="http://www.w3.org/2000/svg" width="65.194" height="125.237" viewBox="0 0 65.194 125.237">
  <g id="testblack-removebg-preview" transform="translate(-1.52 347.023)">
    <path id="Контур_1" data-name="Контур 1" d="M39.139-340.931c-3.006,3.513-11.951,13.979-19.845,23.249-7.931,9.271-15.21,17.781-16.224,18.94s-1.7,2.245-1.521,2.39c.253.217,35.2-28.283,37.047-30.2.435-.435,6.265-20.063,6.12-20.461C44.644-347.2,42.145-344.444,39.139-340.931Z" transform="translate(0)"/>
    <path id="Контур_2" data-name="Контур 2" d="M96.97-345.5c-.217.8-2.9,10.14-5.939,20.787l-5.541,19.3,1.231,3.078a36.806,36.806,0,0,1,2.607,14.956c0,8.547-1.774,15.536-6.229,24.227-1.992,3.875-2.1,4.237-2.1,6.7a9.945,9.945,0,0,0,.29,2.933c.471.724,35.96,32.122,36.105,31.977s-.652-5.215-4.527-29.08c-1.2-7.388-2.245-13.906-2.318-14.486-.109-.616-.652-4.02-1.267-7.6-2.354-13.8-6.663-40.668-7.1-44.181-.29-2.209-4.527-29.188-4.672-29.7C97.441-346.806,97.224-346.3,96.97-345.5Z" transform="translate(-50.697 -0.245)"/>
    <path id="Контур_3" data-name="Контур 3" d="M23.342-269.6c-9.271,7.641-17.238,14.2-17.672,14.558l-.869.616,3.151,1.919c7.786,4.78,15.753,12.132,19.7,18.107,2.9,4.418,3.658,6.482,4.6,12.53l.253,1.449.833-1.811a49.891,49.891,0,0,0,3.042-9.488c.616-3.44.543-10.43-.145-12.965a32.009,32.009,0,0,0-5.9-11.009l-2.064-2.318,1.267-1.086c.652-.616,2.173-1.956,3.332-2.97l2.064-1.883,2.752-9.705c1.485-5.323,2.68-9.705,2.607-9.742C40.217-283.474,32.612-277.245,23.342-269.6Z" transform="translate(-2.092 -40.582)"/>
  </g>
</svg>
