<?xml version="1.0" standalone="no"?>
<!DOCTYPE svg PUBLIC "-//W3C//DTD SVG 20010904//EN"
 "http://www.w3.org/TR/2001/REC-SVG-20010904/DTD/svg10.dtd">
<svg version="1.0" xmlns="http://www.w3.org/2000/svg"
 width="512.000000pt" height="512.000000pt" viewBox="0 0 512.000000 512.000000"
 preserveAspectRatio="xMidYMid meet">
<metadata>
Created by potrace 1.14, written by Peter Selinger 2001-2017
</metadata>
<g transform="translate(0.000000,512.000000) scale(0.100000,-0.100000)"
fill="#000000" stroke="none">
<path d="M2950 5079 c-19 -22 -48 -55 -65 -74 -16 -18 -66 -75 -110 -126 -44
-52 -82 -96 -85 -99 -3 -3 -20 -23 -39 -45 -52 -63 -124 -145 -148 -172 -13
-13 -23 -26 -23 -28 0 -3 -8 -13 -17 -23 -22 -23 -98 -111 -148 -172 -20 -25
-42 -49 -48 -55 -7 -5 -29 -31 -50 -57 -21 -26 -43 -53 -50 -60 -7 -7 -48 -56
-92 -108 -44 -52 -84 -100 -90 -106 -5 -6 -30 -35 -55 -64 -25 -29 -49 -58
-55 -64 -5 -6 -37 -43 -70 -81 -33 -39 -67 -79 -77 -90 -41 -47 -92 -107 -188
-220 -57 -66 -128 -149 -159 -184 -86 -98 -151 -181 -151 -192 0 -9 49 20 76
46 6 5 26 21 44 35 32 24 138 107 170 133 8 7 62 50 120 97 58 47 107 87 110
90 3 3 39 32 80 65 41 32 77 62 80 65 3 3 37 30 75 60 39 30 72 57 75 60 3 4
32 28 65 55 32 26 65 53 72 59 7 6 18 16 25 21 27 21 293 240 304 250 6 5 33
28 60 50 43 35 92 78 146 125 13 12 73 180 113 315 5 17 6 22 41 137 19 62 37
122 40 133 7 26 8 32 23 85 7 25 13 46 13 47 -1 2 8 32 18 68 10 36 16 65 12
64 -4 0 -23 -18 -42 -40z"/>
<path d="M3070 5093 c0 -11 -4 -23 -9 -28 -5 -6 -12 -23 -15 -40 -2 -16 -10
-46 -16 -65 -6 -19 -13 -42 -15 -50 -2 -8 -16 -55 -30 -105 -14 -49 -28 -97
-30 -105 -2 -8 -11 -40 -20 -70 -9 -30 -25 -84 -35 -120 -22 -77 -55 -194
-122 -425 -27 -93 -51 -179 -54 -190 -2 -11 -18 -65 -34 -120 -17 -55 -32
-108 -35 -117 -2 -9 -18 -65 -35 -125 l-31 -108 20 -45 c27 -61 71 -182 76
-208 2 -12 6 -26 9 -30 3 -5 7 -19 10 -33 2 -13 9 -45 15 -71 33 -143 35 -449
5 -663 -16 -114 -85 -359 -123 -440 -6 -11 -22 -47 -36 -80 -15 -33 -53 -114
-86 -180 -63 -128 -69 -146 -71 -228 -2 -123 -1 -126 50 -176 48 -46 164 -152
257 -233 27 -23 66 -59 87 -79 21 -20 38 -35 38 -33 0 2 15 -11 34 -29 19 -17
64 -59 102 -92 67 -59 81 -72 146 -130 19 -16 62 -55 97 -85 35 -30 76 -66 91
-80 15 -14 53 -47 85 -75 32 -27 63 -55 69 -61 6 -5 49 -43 96 -84 47 -41 90
-79 96 -85 6 -5 37 -32 69 -60 113 -96 140 -120 143 -127 8 -17 33 -8 28 10
-5 15 -13 74 -21 142 -2 14 -8 52 -13 85 -6 33 -13 76 -16 95 -3 19 -8 46 -10
60 -8 42 -17 103 -22 140 -2 19 -6 46 -9 60 -3 14 -7 43 -10 65 -3 22 -10 64
-16 93 -6 29 -12 65 -14 80 -3 25 -20 125 -29 182 -10 57 -18 107 -22 143 -2
21 -6 42 -8 45 -2 4 -7 36 -11 72 -4 36 -9 68 -11 71 -4 6 -4 9 -34 199 -11
74 -23 146 -25 160 -2 14 -7 45 -10 70 -3 25 -7 52 -9 60 -14 74 -22 120 -32
180 -3 19 -7 46 -10 60 -2 14 -7 41 -10 60 -3 19 -7 46 -10 60 -2 14 -7 41 -9
60 -3 19 -8 46 -11 60 -3 14 -8 43 -10 65 -3 22 -7 49 -11 59 -3 11 -7 34 -9
50 -1 17 -5 45 -9 61 -3 17 -8 45 -10 64 -6 40 -9 55 -30 181 -18 102 -19 108
-30 185 -3 28 -8 57 -10 65 -5 18 -13 65 -19 111 -6 42 -16 106 -22 139 -2 14
-7 41 -10 60 -3 19 -9 60 -14 90 -9 53 -14 86 -25 168 -3 20 -10 60 -15 87 -6
28 -12 68 -14 90 -3 22 -7 57 -10 78 -3 20 -8 53 -11 72 -10 68 -16 110 -21
135 -3 14 -7 42 -9 62 -2 20 -6 45 -9 55 -3 10 -8 41 -11 69 -3 28 -8 61 -11
75 -2 13 -7 42 -10 64 -3 22 -8 51 -10 65 -3 14 -7 41 -10 60 -2 19 -7 46 -9
60 -3 14 -7 45 -11 70 -3 25 -7 52 -9 60 -3 8 -7 33 -10 55 -3 22 -8 56 -11
75 -4 19 -8 44 -9 55 -2 11 -5 32 -8 46 -3 15 -8 52 -12 83 -7 53 -25 89 -25
49z"/>
<path d="M2619 4092 c-131 -106 -179 -145 -193 -157 -6 -5 -32 -27 -58 -48
-26 -21 -53 -43 -60 -50 -7 -7 -29 -24 -48 -38 -19 -15 -46 -37 -61 -50 -14
-13 -41 -36 -61 -51 -20 -15 -42 -33 -50 -40 -7 -8 -33 -29 -58 -48 -24 -19
-52 -42 -61 -50 -20 -19 -38 -34 -174 -145 -60 -49 -187 -153 -280 -230 -94
-77 -185 -152 -203 -166 l-33 -25 103 -64 c57 -35 104 -67 106 -72 2 -4 8 -8
13 -8 12 0 89 -57 224 -164 102 -82 318 -292 390 -380 99 -120 206 -303 232
-393 1 -7 5 -19 6 -25 2 -7 7 -20 10 -28 3 -8 8 -28 11 -45 3 -16 7 -41 10
-55 3 -14 8 -43 11 -65 4 -22 8 -47 10 -55 2 -8 4 -19 5 -25 1 -11 31 46 48
92 6 15 20 53 32 83 20 54 69 216 76 255 25 142 25 428 0 540 -32 140 -156
364 -275 497 l-51 57 42 38 c23 21 58 52 78 70 19 18 59 53 88 79 53 47 71 71
77 102 4 23 35 134 42 152 3 8 8 24 10 34 2 11 17 65 33 121 31 106 108 387
115 418 2 9 1 17 -3 17 -4 -1 -50 -36 -103 -78z"/>
</g>
</svg>
